National.Lampoons.The.Legend.Of.Awesomest.Maximus.2011.BRRip.Ac3.XviD-ANALOG







Complete name : C:UsersootDesktopNational.Lampoons.The.Legend.Of.Awesomest.Maximus.2011.BRRip.Ac3.Xvid.ANALOGN.L.T.L.O.A.M.BRR.ANALOG.avi
Format : AVI
Format/Info : Audio Video Interleave
File size : 1.45 GiB
Duration : 1h 30mn
Overall bit rate : 2 278 Kbps
Movie name : N.L.T.L.O.A.M.BRR.ANALOG
Writing application : VirtualDub build 32842/release
Copyright : ANALOG

Video
ID : 0
Format : MPEG-4 Visual
Format profile : Advanced Simple@L5
Format settings, BVOP : 1
Format settings, QPel : No
Format settings, GMC : No warppoints
Format settings, Matrix : Default (H.263)
Muxing mode : Packed bitstream
Codec ID : XVID
Codec ID/Hint : XviD
Duration : 1h 30mn
Bit rate : 1 885 Kbps
Width : 720 pixels
Height : 400 pixels
Display aspect ratio : 16:9
Frame rate : 23.976 fps
Color space : YUV
Chroma subsampling : 4:2:0
Bit depth : 8 bits
Scan type : Progressive
Compression mode : Lossy
Bits/(Pixel*Frame) : 0.273
Stream size : 1.20 GiB (83%)
Writing library : XviD 64

Audio
ID : 1
Format : AC-3
Format/Info : Audio Coding 3
Mode extension : CM (complete main)
Codec ID : 2000
Duration : 1h 30mn
Bit rate mode : Constant
Bit rate : 384 Kbps
Channel(s) : 6 channels
Channel positions : Front: L C R, Side: L R, LFE
Sampling rate : 48.0 KHz
Bit depth : 16 bits
Compression mode : Lossy
Stream size : 250 MiB (17%)
Alignment : Aligned on interleaves
Interleave, duration : 42 ms (1.00 video frame)
Interleave, preload duration : 512 ms
Language : English
Sample : Yes
Source : LEVERAGE 720p THANX
As humans, we perceive the world in analog. Everything we see and hear is a continuous transmission of information to our senses.
analog.p.2.p@hushmail.com
GREATINGS TO ALL THE PLACES I LURK!!
